<?xml version="1.0" standalone="no"?>
<!DOCTYPE svg PUBLIC "-//W3C//DTD SVG 20010904//EN"
 "http://www.w3.org/TR/2001/REC-SVG-20010904/DTD/svg10.dtd">
<svg version="1.0" xmlns="http://www.w3.org/2000/svg"
 width="232.000000pt" height="232.000000pt" viewBox="0 0 232.000000 232.000000"
 preserveAspectRatio="xMidYMid meet">
<metadata>
Created by potrace 1.14, written by Peter Selinger 2001-2017
</metadata>
<g transform="translate(0.000000,232.000000) scale(0.100000,-0.100000)"
fill="#000000" stroke="none">
<path d="M120 1270 c0 -199 4 -220 61 -285 64 -72 176 -98 263 -61 l40 17 53
-53 c59 -58 64 -55 60 34 -2 37 -9 64 -21 77 -17 18 -17 21 0 53 26 49 23 144
-5 199 -42 80 -107 125 -195 133 -74 7 -82 2 -80 -52 1 -26 2 -50 3 -54 0 -3
13 -3 29 1 85 23 173 -57 163 -149 -4 -37 -8 -37 -49 3 -21 20 -42 37 -46 37
-4 0 -6 -36 -4 -80 l3 -80 -40 0 c-22 0 -54 9 -72 20 -57 34 -63 60 -63 250
l0 170 -50 0 -50 0 0 -180z"/>
<path d="M790 1303 c-67 -26 -95 -136 -54 -215 17 -33 70 -60 101 -52 17 5 20
2 16 -19 -4 -21 0 -25 27 -31 58 -11 70 -8 70 19 0 21 -5 25 -28 25 -40 0 -45
10 -17 32 27 21 43 68 40 113 -2 17 -3 38 -4 47 -2 34 -53 79 -96 83 -22 3
-47 2 -55 -2z m74 -61 c19 -22 24 -115 7 -136 -40 -48 -91 -12 -91 64 0 75 45
114 84 72z"/>
<path d="M1190 1286 c0 -26 20 -39 45 -30 8 4 15 17 15 30 0 20 -5 24 -30 24
-25 0 -30 -4 -30 -24z"/>
<path d="M1470 1174 l0 -135 28 3 c26 3 27 6 26 53 l-2 49 24 -39 c13 -22 24
-44 24 -48 0 -11 42 -25 57 -20 9 4 5 20 -14 56 l-26 52 22 37 c27 47 27 48
-9 48 -23 0 -32 -7 -46 -35 -25 -54 -31 -50 -29 23 2 83 -1 92 -31 92 l-24 0
0 -136z"/>
<path d="M1677 1303 c-4 -3 -7 -64 -7 -134 0 -93 3 -128 13 -131 11 -4 34 -3
95 1 54 3 83 89 42 126 -17 16 -18 19 -4 40 20 31 8 72 -27 90 -29 15 -100 20
-112 8z m101 -66 c3 -21 -2 -29 -20 -36 -35 -13 -47 -3 -46 35 1 33 3 35 32
32 25 -2 32 -8 34 -31z m6 -93 c24 -23 19 -49 -9 -62 -48 -22 -63 -16 -63 26
0 20 2 40 5 45 8 13 51 7 67 -9z"/>
<path d="M1886 1293 c-4 -9 -2 -21 3 -26 15 -15 41 0 41 23 0 25 -35 28 -44 3z"/>
<path d="M1987 1303 c-8 -15 -1 -243 8 -252 10 -9 38 -14 62 -12 17 1 4 31
-13 31 -16 0 -16 -5 -18 130 -1 89 -4 105 -18 108 -9 2 -18 -1 -21 -5z"/>
<path d="M2090 1195 c0 -132 7 -155 50 -155 34 0 42 25 11 33 -17 4 -18 15
-18 118 1 110 1 114 -21 117 -22 3 -22 1 -22 -113z"/>
<path d="M998 1232 c-15 -3 -18 -15 -18 -67 0 -103 27 -136 108 -129 62 5 62
6 62 104 l0 90 -30 0 -30 0 0 -75 c0 -55 -3 -75 -13 -75 -26 0 -37 25 -37 86
0 63 -7 74 -42 66z"/>
<path d="M1341 1224 c-49 -20 -66 -87 -36 -143 17 -34 57 -50 103 -43 27 4 32
8 30 26 -2 16 -10 21 -33 21 -42 0 -55 11 -55 49 0 40 21 60 54 52 19 -5 26
-1 31 15 4 11 4 23 1 26 -11 11 -65 10 -95 -3z"/>
<path d="M1177 1223 c-13 -12 -7 -33 8 -33 12 0 15 -15 15 -75 l0 -75 28 0 27
0 0 95 0 95 -36 0 c-19 0 -39 -3 -42 -7z"/>
<path d="M1870 1215 c0 -8 5 -15 10 -15 6 0 10 -33 10 -80 0 -73 2 -80 19 -80
16 0 20 8 23 43 2 23 1 66 0 95 -4 50 -5 52 -33 52 -19 0 -29 -5 -29 -15z"/>
<path d="M1020 973 c0 -12 5 -23 11 -23 6 0 9 6 6 14 -3 7 -1 18 4 23 6 6 4
10 -6 10 -9 0 -15 -9 -15 -24z"/>
<path d="M1092 970 c0 -19 3 -26 5 -16 4 15 7 16 14 5 6 -10 9 -8 9 9 0 13 -4
21 -9 18 -5 -4 -12 0 -14 6 -3 7 -5 -3 -5 -22z"/>
<path d="M1174 992 c-14 -9 -14 -40 0 -45 7 -3 12 8 12 24 1 16 1 29 0 29 0 0
-6 -4 -12 -8z"/>
<path d="M1265 979 c-7 -20 0 -37 10 -27 3 3 7 15 10 27 5 27 -12 28 -20 0z"/>
<path d="M1411 991 c0 -3 4 -15 8 -26 7 -18 8 -17 13 6 3 17 0 26 -9 26 -7 0
-13 -3 -12 -6z"/>
<path d="M1563 975 c0 -15 5 -25 14 -25 9 0 13 8 11 22 -4 31 -25 34 -25 3z"/>
<path d="M1638 976 c-3 -16 0 -27 9 -30 10 -4 13 3 11 24 -3 36 -14 39 -20 6z"/>
<path d="M1740 970 c0 -22 4 -28 15 -24 8 4 15 14 15 24 0 10 -7 20 -15 24
-11 4 -15 -2 -15 -24z"/>
<path d="M2006 984 c-8 -21 -8 -34 2 -34 4 0 9 11 10 25 2 28 -3 32 -12 9z"/>
<path d="M2144 985 c-8 -20 3 -48 16 -40 5 3 10 11 10 16 0 6 -4 7 -10 4 -5
-3 -10 -1 -10 4 0 6 5 11 10 11 6 0 10 5 10 10 0 16 -20 12 -26 -5z"/>
<path d="M1334 978 c6 -41 37 -45 35 -5 0 21 -1 21 -9 2 -7 -17 -9 -17 -9 -2
-1 9 -5 17 -10 17 -5 0 -8 -6 -7 -12z"/>
<path d="M1480 971 c0 -24 26 -35 34 -15 9 24 7 36 -4 29 -6 -4 -7 -11 -4 -17
4 -7 2 -8 -5 -4 -6 4 -9 12 -6 17 4 5 1 9 -4 9 -6 0 -11 -9 -11 -19z"/>
<path d="M1810 970 c0 -11 4 -20 9 -20 6 0 9 9 8 20 -1 11 -5 20 -9 20 -4 0
-8 -9 -8 -20z"/>
<path d="M1871 968 c-1 -16 4 -28 9 -28 12 0 12 8 0 35 -8 18 -9 17 -9 -7z"/>
<path d="M1938 965 c2 -14 8 -23 12 -20 10 6 1 45 -10 45 -4 0 -5 -11 -2 -25z"/>
<path d="M2060 968 c0 -19 2 -20 10 -8 6 10 10 11 10 3 0 -7 4 -13 9 -13 6 0
9 9 8 20 -2 29 -37 27 -37 -2z"/>
</g>
</svg>
